<svg xmlns="http://www.w3.org/2000/svg" xmlns:xlink="http://www.w3.org/1999/xlink" contentStyleType="text/css" data-diagram-type="DESCRIPTION" height="1759px" preserveAspectRatio="none" style="width:1280px;height:1759px;background:#FFFFFF;" version="1.1" viewBox="0 0 1280 1759" width="1280px" zoomAndPan="magnify"><defs/><g><!--cluster Client--><g id="cluster_Client"><polygon fill="#FFFFFF" points="605.3,1612,615.3,1602,784.3,1602,784.3,1732,774.3,1742,605.3,1742,605.3,1612" style="stroke:#000000;stroke-width:1;"/><line style="stroke:#000000;stroke-width:1;" x1="774.3" x2="784.3" y1="1612" y2="1602"/><line style="stroke:#000000;stroke-width:1;" x1="605.3" x2="774.3" y1="1612" y2="1612"/><line style="stroke:#000000;stroke-width:1;" x1="774.3" x2="774.3" y1="1612" y2="1742"/><text fill="#000000" font-family="Verdana" font-size="14" font-weight="bold" lengthAdjust="spacing" textLength="103.7354" x="638.9323" y="1627.9951">Client Device</text></g><!--cluster AdminHost--><g id="cluster_AdminHost"><polygon fill="#FFFFFF" points="516.3,1209,526.3,1199,1263.3,1199,1263.3,1560,1253.3,1570,516.3,1570,516.3,1209" style="stroke:#000000;stroke-width:1;"/><line style="stroke:#000000;stroke-width:1;" x1="1253.3" x2="1263.3" y1="1209" y2="1199"/><line style="stroke:#000000;stroke-width:1;" x1="516.3" x2="1253.3" y1="1209" y2="1209"/><line style="stroke:#000000;stroke-width:1;" x1="1253.3" x2="1253.3" y1="1209" y2="1570"/><text fill="#000000" font-family="Verdana" font-size="14" font-weight="bold" lengthAdjust="spacing" textLength="202.0293" x="784.7854" y="1224.9951">Application Server Host 1</text></g><!--cluster AdminContainer--><g id="cluster_AdminContainer"><polygon fill="#FFFFFF" points="548.3,1265,558.3,1255,1231.3,1255,1231.3,1528,1221.3,1538,548.3,1538,548.3,1265" style="stroke:#000000;stroke-width:1;"/><line style="stroke:#000000;stroke-width:1;" x1="1221.3" x2="1231.3" y1="1265" y2="1255"/><line style="stroke:#000000;stroke-width:1;" x1="548.3" x2="1221.3" y1="1265" y2="1265"/><line style="stroke:#000000;stroke-width:1;" x1="1221.3" x2="1221.3" y1="1265" y2="1538"/><text fill="#000000" font-family="Verdana" font-size="14" font-weight="bold" lengthAdjust="spacing" textLength="168" x="801.8" y="1280.9951">Admin App Container</text></g><!--cluster AdminApp--><g id="cluster_AdminApp"><rect fill="#FFFFFF" height="187" rx="2.5" ry="2.5" style="stroke:#000000;stroke-width:1;" width="619" x="580.3" y="1311"/><polygon fill="#FFFFFF" points="1182.3,1316,1182.3,1330,1194.3,1330,1194.3,1322,1188.3,1316,1182.3,1316" style="stroke:#000000;stroke-width:1;"/><line style="stroke:#000000;stroke-width:1;" x1="1188.3" x2="1188.3" y1="1316" y2="1322"/><line style="stroke:#000000;stroke-width:1;" x1="1194.3" x2="1188.3" y1="1322" y2="1322"/><text fill="#000000" font-family="Verdana" font-size="14" font-weight="bold" lengthAdjust="spacing" textLength="189.6289" x="794.9855" y="1325.9951">aviasales-admin-app.jar</text></g><!--cluster ProcessorHost--><g id="cluster_ProcessorHost"><polygon fill="#FFFFFF" points="479.3,21,489.3,11,910.3,11,910.3,282,900.3,292,479.3,292,479.3,21" style="stroke:#000000;stroke-width:1;"/><line style="stroke:#000000;stroke-width:1;" x1="900.3" x2="910.3" y1="21" y2="11"/><line style="stroke:#000000;stroke-width:1;" x1="479.3" x2="900.3" y1="21" y2="21"/><line style="stroke:#000000;stroke-width:1;" x1="900.3" x2="900.3" y1="21" y2="292"/><text fill="#000000" font-family="Verdana" font-size="14" font-weight="bold" lengthAdjust="spacing" textLength="202.0293" x="589.7854" y="36.9951">Application Server Host 2</text></g><!--cluster ProcessorContainer--><g id="cluster_ProcessorContainer"><polygon fill="#FFFFFF" points="511.3,77,521.3,67,878.3,67,878.3,250,868.3,260,511.3,260,511.3,77" style="stroke:#000000;stroke-width:1;"/><line style="stroke:#000000;stroke-width:1;" x1="868.3" x2="878.3" y1="77" y2="67"/><line style="stroke:#000000;stroke-width:1;" x1="511.3" x2="868.3" y1="77" y2="77"/><line style="stroke:#000000;stroke-width:1;" x1="868.3" x2="868.3" y1="77" y2="260"/><text fill="#000000" font-family="Verdana" font-size="14" font-weight="bold" lengthAdjust="spacing" textLength="195.5557" x="593.0222" y="92.9951">Processor App Container</text></g><!--cluster ProcessorApp--><g id="cluster_ProcessorApp"><rect fill="#FFFFFF" height="97" rx="2.5" ry="2.5" style="stroke:#000000;stroke-width:1;" width="303" x="543.3" y="123"/><polygon fill="#FFFFFF" points="829.3,128,829.3,142,841.3,142,841.3,134,835.3,128,829.3,128" style="stroke:#000000;stroke-width:1;"/><line style="stroke:#000000;stroke-width:1;" x1="835.3" x2="835.3" y1="128" y2="134"/><line style="stroke:#000000;stroke-width:1;" x1="841.3" x2="835.3" y1="134" y2="134"/><text fill="#000000" font-family="Verdana" font-size="14" font-weight="bold" lengthAdjust="spacing" textLength="287.123" x="551.2385" y="137.9951">advertisement-processor-service.jar</text></g><!--cluster DBHost--><g id="cluster_DBHost"><polygon fill="#FFFFFF" points="570.8,935,580.8,925,818.8,925,818.8,1165,808.8,1175,570.8,1175,570.8,935" style="stroke:#000000;stroke-width:1;"/><line style="stroke:#000000;stroke-width:1;" x1="808.8" x2="818.8" y1="935" y2="925"/><line style="stroke:#000000;stroke-width:1;" x1="570.8" x2="808.8" y1="935" y2="935"/><line style="stroke:#000000;stroke-width:1;" x1="808.8" x2="808.8" y1="935" y2="1175"/><text fill="#000000" font-family="Verdana" font-size="14" font-weight="bold" lengthAdjust="spacing" textLength="172.6211" x="604.4895" y="950.9951">Database Server Host</text></g><!--cluster DBContainer--><g id="cluster_DBContainer"><polygon fill="#FFFFFF" points="604.8,991,614.8,981,784.8,981,784.8,1133,774.8,1143,604.8,1143,604.8,991" style="stroke:#000000;stroke-width:1;"/><line style="stroke:#000000;stroke-width:1;" x1="774.8" x2="784.8" y1="991" y2="981"/><line style="stroke:#000000;stroke-width:1;" x1="604.8" x2="774.8" y1="991" y2="991"/><line style="stroke:#000000;stroke-width:1;" x1="774.8" x2="774.8" y1="991" y2="1143"/><text fill="#000000" font-family="Verdana" font-size="14" font-weight="bold" lengthAdjust="spacing" textLength="104.3301" x="638.635" y="1006.9951">DB Container</text></g><!--cluster KafkaHost--><g id="cluster_KafkaHost"><polygon fill="#FFFFFF" points="578.8,682,588.8,672,1208.8,672,1208.8,891,1198.8,901,578.8,901,578.8,682" style="stroke:#000000;stroke-width:1;"/><line style="stroke:#000000;stroke-width:1;" x1="1198.8" x2="1208.8" y1="682" y2="672"/><line style="stroke:#000000;stroke-width:1;" x1="578.8" x2="1198.8" y1="682" y2="682"/><line style="stroke:#000000;stroke-width:1;" x1="1198.8" x2="1198.8" y1="682" y2="901"/><text fill="#000000" font-family="Verdana" font-size="14" font-weight="bold" lengthAdjust="spacing" textLength="188.7744" x="795.4128" y="697.9951">Messaging System Host</text></g><!--cluster KafkaContainer--><g id="cluster_KafkaContainer"><polygon fill="#FFFFFF" points="610.8,738,620.8,728,1176.8,728,1176.8,859,1166.8,869,610.8,869,610.8,738" style="stroke:#000000;stroke-width:1;"/><line style="stroke:#000000;stroke-width:1;" x1="1166.8" x2="1176.8" y1="738" y2="728"/><line style="stroke:#000000;stroke-width:1;" x1="610.8" x2="1166.8" y1="738" y2="738"/><line style="stroke:#000000;stroke-width:1;" x1="1166.8" x2="1166.8" y1="738" y2="869"/><text fill="#000000" font-family="Verdana" font-size="14" font-weight="bold" lengthAdjust="spacing" textLength="127.1826" x="826.2087" y="753.9951">Kafka Container</text></g><!--cluster EISHost--><g id="cluster_EISHost"><polygon fill="#FFFFFF" points="493.8,398,503.8,388,895.8,388,895.8,638,885.8,648,493.8,648,493.8,398" style="stroke:#000000;stroke-width:1;"/><line style="stroke:#000000;stroke-width:1;" x1="885.8" x2="895.8" y1="398" y2="388"/><line style="stroke:#000000;stroke-width:1;" x1="493.8" x2="885.8" y1="398" y2="398"/><line style="stroke:#000000;stroke-width:1;" x1="885.8" x2="885.8" y1="398" y2="648"/><text fill="#000000" font-family="Verdana" font-size="14" font-style="italic" lengthAdjust="spacing" textLength="132.2686" x="624.6657" y="413.9951">&#171;External System&#187;</text><text fill="#000000" font-family="Verdana" font-size="14" font-weight="bold" lengthAdjust="spacing" textLength="326.9014" x="527.3493" y="430.292">Enterprise Information System (EIS) Host</text></g><!--cluster EISContainer--><g id="cluster_EISContainer"><polygon fill="#FFFFFF" points="560.8,470,570.8,460,828.8,460,828.8,606,818.8,616,560.8,616,560.8,470" style="stroke:#000000;stroke-width:1;"/><line style="stroke:#000000;stroke-width:1;" x1="818.8" x2="828.8" y1="470" y2="460"/><line style="stroke:#000000;stroke-width:1;" x1="560.8" x2="818.8" y1="470" y2="470"/><line style="stroke:#000000;stroke-width:1;" x1="818.8" x2="818.8" y1="470" y2="616"/><text fill="#000000" font-family="Verdana" font-size="14" font-weight="bold" lengthAdjust="spacing" textLength="106.8936" x="637.3532" y="485.9951">EIS Container</text></g><!--entity Web Browser--><g id="elem_Web Browser"><rect fill="#FFFFFF" height="39.2969" rx="2.5" ry="2.5" style="stroke:#000000;stroke-width:1;" width="122.832" x="633.3" y="1650.5"/><polygon fill="#FFFFFF" points="739.132,1655.5,739.132,1669.5,751.132,1669.5,751.132,1661.5,745.132,1655.5,739.132,1655.5" style="stroke:#000000;stroke-width:1;"/><line style="stroke:#000000;stroke-width:1;" x1="745.132" x2="745.132" y1="1655.5" y2="1661.5"/><line style="stroke:#000000;stroke-width:1;" x1="751.132" x2="745.132" y1="1661.5" y2="1661.5"/><text fill="#000000" font-family="Verdana" font-size="14" lengthAdjust="spacing" textLength="92.832" x="643.3" y="1676.4951">Web Browser</text></g><!--entity AdminRobokassa--><g id="elem_AdminRobokassa"><rect fill="#FFFFFF" height="46.2969" rx="2.5" ry="2.5" style="stroke:#000000;stroke-width:1;" width="197.1924" x="596.3" y="1436"/><rect fill="#FFFFFF" height="10" style="stroke:#000000;stroke-width:1;" width="15" x="773.4924" y="1441"/><rect fill="#FFFFFF" height="2" style="stroke:#000000;stroke-width:1;" width="4" x="771.4924" y="1443"/><rect fill="#FFFFFF" height="2" style="stroke:#000000;stroke-width:1;" width="4" x="771.4924" y="1447"/><text fill="#000000" font-family="Verdana" font-size="14" lengthAdjust="spacing" textLength="157.1924" x="611.3" y="1468.9951">Robokassa Integration</text></g><!--entity AdminKafkaProducer--><g id="elem_AdminKafkaProducer"><rect fill="#FFFFFF" height="46.2969" rx="2.5" ry="2.5" style="stroke:#000000;stroke-width:1;" width="146.415" x="621.8" y="1346"/><rect fill="#FFFFFF" height="10" style="stroke:#000000;stroke-width:1;" width="15" x="748.215" y="1351"/><rect fill="#FFFFFF" height="2" style="stroke:#000000;stroke-width:1;" width="4" x="746.215" y="1353"/><rect fill="#FFFFFF" height="2" style="stroke:#000000;stroke-width:1;" width="4" x="746.215" y="1357"/><text fill="#000000" font-family="Verdana" font-size="14" lengthAdjust="spacing" textLength="106.415" x="636.8" y="1378.9951">Kafka Producer</text></g><!--entity JakartaEISConnector--><g id="elem_JakartaEISConnector"><rect fill="#FFFFFF" height="62.5938" rx="2.5" ry="2.5" style="stroke:#000000;stroke-width:1;" width="165.877" x="1017.3" y="1418.5"/><rect fill="#FFFFFF" height="10" style="stroke:#000000;stroke-width:1;" width="15" x="1163.177" y="1423.5"/><rect fill="#FFFFFF" height="2" style="stroke:#000000;stroke-width:1;" width="4" x="1161.177" y="1425.5"/><rect fill="#FFFFFF" height="2" style="stroke:#000000;stroke-width:1;" width="4" x="1161.177" y="1429.5"/><text fill="#000000" font-family="Verdana" font-size="14" font-style="italic" lengthAdjust="spacing" textLength="120.7363" x="1034.8703" y="1451.4951">&#171;EIS Integration&#187;</text><text fill="#000000" font-family="Verdana" font-size="14" lengthAdjust="spacing" textLength="125.877" x="1032.3" y="1467.792">Jakarta Connector</text></g><!--entity ProcessorKafkaConsumer--><g id="elem_ProcessorKafkaConsumer"><rect fill="#FFFFFF" height="46.2969" rx="2.5" ry="2.5" style="stroke:#000000;stroke-width:1;" width="155.2129" x="617.3" y="158"/><rect fill="#FFFFFF" height="10" style="stroke:#000000;stroke-width:1;" width="15" x="752.5129" y="163"/><rect fill="#FFFFFF" height="2" style="stroke:#000000;stroke-width:1;" width="4" x="750.5129" y="165"/><rect fill="#FFFFFF" height="2" style="stroke:#000000;stroke-width:1;" width="4" x="750.5129" y="169"/><text fill="#000000" font-family="Verdana" font-size="14" lengthAdjust="spacing" textLength="115.2129" x="632.3" y="190.9951">Kafka Consumer</text></g><!--entity PostgresDB--><g id="elem_PostgresDB"><path d="M634.8,1039 C634.8,1029 694.5539,1029 694.5539,1029 C694.5539,1029 754.3078,1029 754.3078,1039 L754.3078,1080.5938 C754.3078,1090.5938 694.5539,1090.5938 694.5539,1090.5938 C694.5539,1090.5938 634.8,1090.5938 634.8,1080.5938 L634.8,1039 " fill="#FFFFFF" style="stroke:#000000;stroke-width:1;"/><path d="M634.8,1039 C634.8,1049 694.5539,1049 694.5539,1049 C694.5539,1049 754.3078,1049 754.3078,1039 " fill="transparent" style="stroke:#000000;stroke-width:1;"/><text fill="#000000" font-family="Verdana" font-size="14" font-style="italic" lengthAdjust="spacing" textLength="97.5078" x="645.8" y="1065.9951">&#171;Datasource&#187;</text><text fill="#000000" font-family="Verdana" font-size="14" lengthAdjust="spacing" textLength="80.7529" x="654.1774" y="1082.292">PostgreSQL</text></g><!--entity KafkaBroker--><g id="elem_KafkaBroker"><rect fill="#FFFFFF" height="39.2969" rx="2.5" ry="2.5" style="stroke:#000000;stroke-width:1;" width="120.2275" x="634.8" y="776.5"/><polygon fill="#FFFFFF" points="738.0275,781.5,738.0275,795.5,750.0275,795.5,750.0275,787.5,744.0275,781.5,738.0275,781.5" style="stroke:#000000;stroke-width:1;"/><line style="stroke:#000000;stroke-width:1;" x1="744.0275" x2="744.0275" y1="781.5" y2="787.5"/><line style="stroke:#000000;stroke-width:1;" x1="750.0275" x2="744.0275" y1="787.5" y2="787.5"/><text fill="#000000" font-family="Verdana" font-size="14" lengthAdjust="spacing" textLength="90.2275" x="644.8" y="802.4951">Kafka Broker</text></g><!--entity Zookeeper--><g id="elem_Zookeeper"><rect fill="#FFFFFF" height="39.2969" rx="2.5" ry="2.5" style="stroke:#000000;stroke-width:1;" width="105.3115" x="1047.8" y="776.5"/><polygon fill="#FFFFFF" points="1136.1115,781.5,1136.1115,795.5,1148.1115,795.5,1148.1115,787.5,1142.1115,781.5,1136.1115,781.5" style="stroke:#000000;stroke-width:1;"/><line style="stroke:#000000;stroke-width:1;" x1="1142.1115" x2="1142.1115" y1="781.5" y2="787.5"/><line style="stroke:#000000;stroke-width:1;" x1="1148.1115" x2="1142.1115" y1="787.5" y2="787.5"/><text fill="#000000" font-family="Verdana" font-size="14" lengthAdjust="spacing" textLength="75.3115" x="1057.8" y="802.4951">Zookeeper</text></g><!--entity EISApp--><g id="elem_EISApp"><rect fill="#FFFFFF" height="55.5938" rx="2.5" ry="2.5" style="stroke:#000000;stroke-width:1;" width="219.7041" x="584.8" y="508"/><polygon fill="#FFFFFF" points="787.5041,513,787.5041,527,799.5041,527,799.5041,519,793.5041,513,787.5041,513" style="stroke:#000000;stroke-width:1;"/><line style="stroke:#000000;stroke-width:1;" x1="793.5041" x2="793.5041" y1="513" y2="519"/><line style="stroke:#000000;stroke-width:1;" x1="799.5041" x2="793.5041" y1="519" y2="519"/><text fill="#000000" font-family="Verdana" font-size="14" font-style="italic" lengthAdjust="spacing" textLength="39.1426" x="670.0808" y="533.9951">&#171;EIS&#187;</text><text fill="#000000" font-family="Verdana" font-size="14" lengthAdjust="spacing" textLength="189.7041" x="594.8" y="550.292">&#1057;&#1077;&#1088;&#1074;&#1080;&#1089; &#1075;&#1077;&#1085;&#1077;&#1088;&#1072;&#1094;&#1080;&#1080; &#1089;&#1095;&#1077;&#1090;&#1086;&#1074;</text></g><!--entity Robokassa--><g id="elem_Robokassa"><polygon fill="#FFFFFF" points="570.8,318.5,580.8,308.5,819.0637,308.5,819.0637,361.0938,809.0637,371.0938,570.8,371.0938,570.8,318.5" style="stroke:#000000;stroke-width:1;"/><line style="stroke:#000000;stroke-width:1;" x1="809.0637" x2="819.0637" y1="318.5" y2="308.5"/><line style="stroke:#000000;stroke-width:1;" x1="570.8" x2="809.0637" y1="318.5" y2="318.5"/><line style="stroke:#000000;stroke-width:1;" x1="809.0637" x2="809.0637" y1="318.5" y2="371.0938"/><text fill="#000000" font-family="Verdana" font-size="14" font-style="italic" lengthAdjust="spacing" textLength="132.2686" x="623.7976" y="341.4951">&#171;External System&#187;</text><text fill="#000000" font-family="Verdana" font-size="14" lengthAdjust="spacing" textLength="75.5986" x="585.8" y="357.792">Robokassa</text><text fill="#000000" font-family="Verdana" font-size="14" lengthAdjust="spacing" textLength="4.4502" x="661.3986" y="357.792">&#160;</text><text fill="#000000" font-family="Verdana" font-size="14" lengthAdjust="spacing" textLength="61.9199" x="665.8488" y="357.792">Payment</text><text fill="#000000" font-family="Verdana" font-size="14" lengthAdjust="spacing" textLength="4.4502" x="727.7688" y="357.792">&#160;</text><text fill="#000000" font-family="Verdana" font-size="14" lengthAdjust="spacing" textLength="61.8447" x="732.2189" y="357.792">Gateway</text></g><!--link KafkaBroker to Zookeeper--><g id="link_KafkaBroker_Zookeeper"><path d="M754.9,796 C833.93,796 966.73,796 1041.72,796 " fill="transparent" id="KafkaBroker-to-Zookeeper" style="stroke:#000000;stroke-width:1;stroke-dasharray:7.0,7.0;"/><polygon fill="#000000" points="1047.72,796,1038.72,792,1042.72,796,1038.72,800,1047.72,796" style="stroke:#000000;stroke-width:1;"/><text fill="#000000" font-family="Verdana" font-size="13" lengthAdjust="spacing" textLength="59.8584" x="927.3" y="792.0669">manages</text></g><!--link Client to AdminContainer--><g id="link_Client_AdminContainer"><path d="M644.7544,1742.1626 C643.7937,1742.2866 642.8219,1742.4104 641.839,1742.5338 C639.8732,1742.7806 637.8634,1743.0261 635.8114,1743.2692 C602.9791,1747.1584 559.3431,1750.4269 512.5213,1748.7038 C418.8775,1745.2575 312.49,1721.845 254.3,1643.5 C194.97,1563.615 300.7525,1534.8725 423.4875,1526.2813 C454.1713,1524.1334 485.9145,1523.2451 516.4023,1523.1319 C524.0243,1523.1036 531.5678,1523.1238 538.9966,1523.1849 C540.8538,1523.2001 542.7039,1523.2179 544.5462,1523.2382 C545.4674,1523.2483 540.387,1523.1849 541.3043,1523.1963 " fill="transparent" id="Client-to-AdminContainer" style="stroke:#000000;stroke-width:1;"/><polygon fill="#000000" points="547.3038,1523.2704,538.3539,1519.1595,542.3042,1523.2086,538.2551,1527.1589,547.3038,1523.2704" style="stroke:#000000;stroke-width:1;"/><text fill="#000000" font-family="Verdana" font-size="13" lengthAdjust="spacing" textLength="132.1963" x="181.3" y="1639.5669">HTTP/HTTPS (UI/API)</text></g><!--link AdminContainer to DBContainer--><g id="link_AdminContainer_DBContainer"><path d="M547.2041,1527.6854 C546.4465,1527.5424 545.6889,1527.3966 544.9315,1527.248 C543.4166,1526.951 541.9022,1526.6429 540.3889,1526.3236 C516.1769,1521.2144 492.26,1513.215 471.3,1501 C341.38,1425.28 181.74,1341.42 276.3,1224.5 C334.705,1152.285 435.8525,1129.255 524.0763,1124.595 C546.1322,1123.43 567.3804,1123.4131 586.9511,1124.0629 C591.8437,1124.2253 596.6316,1124.4294 601.301,1124.6677 C602.4683,1124.7272 597.6374,1124.4577 598.7897,1124.5214 " fill="transparent" id="AdminContainer-to-DBContainer" style="stroke:#000000;stroke-width:1;"/><polygon fill="#000000" points="604.7806,1124.8527,596.0151,1120.3619,599.7882,1124.5766,595.5735,1128.3497,604.7806,1124.8527" style="stroke:#000000;stroke-width:1;"/><text fill="#000000" font-family="Verdana" font-size="13" lengthAdjust="spacing" textLength="88.9624" x="203.3" y="1237.5669">JDBC/XA (JTA)</text></g><!--link AdminContainer to KafkaContainer--><g id="link_AdminContainer_KafkaContainer"><path d="M658.6344,1538.0198 C657.6869,1538.2075 656.7231,1538.397 655.7432,1538.5881 C653.7835,1538.9702 651.7597,1539.3587 649.674,1539.7522 C641.3313,1541.3259 631.9988,1542.9784 621.82,1544.6189 C581.105,1551.1809 526.85,1557.5506 468.24,1557.9138 C351.02,1558.64 216.38,1535.34 137.8,1441.5 C24.815,1306.575 157.9825,1163.8425 322.3663,1053.6725 C404.5581,998.5875 494.5541,951.6431 565.487,917.8856 C600.9535,901.0069 631.6543,887.4248 654.2309,877.7703 C659.875,875.3567 665.0114,873.1885 669.5876,871.2757 C670.7316,870.7975 671.8407,870.3352 672.9139,869.8891 C673.4505,869.666 668.4355,871.7448 668.9541,871.5298 " fill="transparent" id="AdminContainer-to-KafkaContainer" style="stroke:#000000;stroke-width:1;"/><polygon fill="#000000" points="674.4967,869.232,664.6509,868.9837,669.8779,871.1469,667.7148,876.3738,674.4967,869.232" style="stroke:#000000;stroke-width:1;"/><text fill="#000000" font-family="Verdana" font-size="13" lengthAdjust="spacing" textLength="365.2378" x="64.8" y="1437.5669">Kafka Protocol (Topic: advertisement-creation-requests)</text></g><!--link AdminContainer to EISContainer--><g id="link_AdminContainer_EISContainer"><path d="M622.1029,1538.0112 C621.7666,1538.0207 621.4296,1538.0298 621.092,1538.0385 C619.7414,1538.0733 618.3803,1538.1021 617.0094,1538.1243 C614.2675,1538.1688 611.4862,1538.1873 608.6713,1538.1763 C563.6325,1538 509.985,1530.28 471.3,1501 C211.97,1304.7 11,1097.19 189.8,825.5 C255.4,725.825 377.34,671.6325 484.96,642.27 C511.865,634.9294 537.875,629.1406 561.8859,624.5811 C573.8914,622.3013 585.3971,620.3288 596.265,618.6232 C601.699,617.7705 601.0332,617.8285 606.131,617.1042 " fill="transparent" id="AdminContainer-to-EISContainer" style="stroke:#000000;stroke-width:1;"/><polygon fill="#000000" points="612.0714,616.2601,602.5982,613.566,607.1211,616.9635,603.7235,621.4864,612.0714,616.2601" style="stroke:#000000;stroke-width:1;"/><text fill="#000000" font-family="Verdana" font-size="13" lengthAdjust="spacing" textLength="261.3901" x="116.8" y="838.5669">Jakarta Connector Call &#171;EIS Integration&#187;</text></g><!--link AdminContainer to Robokassa--><g id="link_AdminContainer_Robokassa"><path d="M547.803,1530.755 C544.788,1530.1795 541.7766,1529.5547 538.7744,1528.8777 C514.7563,1523.4612 491.3225,1514.6975 471.3,1501 C268.74,1362.42 158.19,1251.54 213.8,1012.5 C272.55,759.95 300.34,683.94 471.3,489 C515.58,438.51 575.4736,400.518 624.0336,374.448 " fill="transparent" id="AdminContainer-to-Robokassa" style="stroke:#000000;stroke-width:1;"/><polygon fill="#000000" points="629.32,371.61,619.4984,372.3428,624.9147,373.975,623.2825,379.3913,629.32,371.61" style="stroke:#000000;stroke-width:1;"/><text fill="#000000" font-family="Verdana" font-size="13" lengthAdjust="spacing" textLength="213.4717" x="140.8" y="1025.5669">HTTP Redirect (Initiate Payment)</text></g><!--link Robokassa to AdminContainer--><g id="link_Robokassa_AdminContainer"><path d="M631.89,371.76 C583.75,398.31 517.93,439.71 471.3,489 C327.2,641.34 286.97,693.19 231.8,895.5 C155.67,1174.7 242.09,1324.33 471.3,1501 C509.73,1530.62 563.3675,1538.35 608.4637,1538.4463 C614.1008,1538.4583 619.6044,1538.351 624.9281,1538.1524 C625.5936,1538.1275 626.2562,1538.1013 626.916,1538.0736 C627.2458,1538.0598 621.5808,1538.3103 621.9093,1538.2958 " fill="transparent" id="Robokassa-to-AdminContainer" style="stroke:#000000;stroke-width:1;"/><polygon fill="#000000" points="627.9034,1538.0311,618.7357,1534.432,622.9083,1538.2517,619.0886,1542.4242,627.9034,1538.0311" style="stroke:#000000;stroke-width:1;"/><text fill="#000000" font-family="Verdana" font-size="13" lengthAdjust="spacing" textLength="177.7407" x="158.8" y="908.5669">HTTP Callback (Result URL)</text></g><!--link ProcessorContainer to DBContainer--><g id="link_ProcessorContainer_DBContainer"><path d="M520.6292,260.0925 C519.2197,260.3183 517.8073,260.5491 516.3925,260.785 C425.8425,275.8825 324.925,311.795 276.3,394.5 C192.77,536.56 345.78,1003.21 471.3,1110 C508.175,1141.375 561.765,1148.22 607.225,1146.9375 C618.59,1146.6169 629.4469,1145.7883 639.4074,1144.708 C641.8976,1144.4379 644.3317,1144.1521 646.7037,1143.8546 C647.8897,1143.7059 649.0602,1143.5542 650.2144,1143.4 C650.7915,1143.323 651.3646,1143.2453 651.9334,1143.1671 C652.2179,1143.128 646.5588,1143.9174 646.8411,1143.878 " fill="transparent" id="ProcessorContainer-to-DBContainer" style="stroke:#000000;stroke-width:1;"/><polygon fill="#000000" points="652.7836,1143.0494,643.3174,1140.3307,647.8315,1143.7399,644.4223,1148.254,652.7836,1143.0494" style="stroke:#000000;stroke-width:1;"/><text fill="#000000" font-family="Verdana" font-size="13" lengthAdjust="spacing" textLength="88.9624" x="203.3" y="407.5669">JDBC/XA (JTA)</text></g><!--link ProcessorContainer to KafkaContainer--><g id="link_ProcessorContainer_KafkaContainer"><path d="M620.632,260.0265 C606.7324,261.7991 591.2943,263.9029 574.6852,266.3741 C508.2484,276.2587 423.0731,292.0212 342.6588,315.975 C181.83,363.8825 40.045,444.555 105.3,576.5 C196.04,759.96 278.16,788.27 471.3,856 C516.715,871.925 570.5725,873.595 614.0375,871.0838 C619.4706,870.7698 624.7414,870.3906 629.8129,869.9657 C632.3487,869.7533 634.8347,869.5294 637.2663,869.2966 C637.8742,869.2384 638.4787,869.1796 639.0798,869.1203 C639.3803,869.0907 633.7097,869.6584 634.0085,869.6285 " fill="transparent" id="ProcessorContainer-to-KafkaContainer" style="stroke:#000000;stroke-width:1;"/><polygon fill="#000000" points="639.9787,869.031,630.6251,865.9471,635.0035,869.5289,631.4217,873.9073,639.9787,869.031" style="stroke:#000000;stroke-width:1;"/><text fill="#000000" font-family="Verdana" font-size="13" lengthAdjust="spacing" textLength="430.314" x="32.3" y="572.5669">Kafka Protocol (Consume Topic: advertisement-creation-requests)</text></g><!--SRC=[ZLNDRXen4BxlKqmvmO54xH4X90XHGvfA58XQzJOiXhWizjOsIQEgKjD3-nnzWofLf5pQPrZUg6FlB-mIoc4bpyptUUQRyV3CNB4LWp10Bho0pGqO2OelhWpCk6A-uL9udf0p1hMJW3DXeC-kkSzgW1eIosSF09NXS_GDrDwoAVIKlD5CrRmlARWRXW7tqVB1cAbhfk1CQWFF7L5tjkB2dIqNG8AnLY0ad4XXA4DYpA8pKmAnlpm9lEQeCM2wYJQuYM5uz04BSCkQ0-ddorKeXIsdDf9JkKIj4GR2i8LoMUVGpBq7_WhdIuIXahErNypOsLFp7kmvBga8j0KBKb_6yCHwEXXdTcYtwLXCiDF9EBzuyVUW-YySFUNaCwsbAdGWQK7cgcX3vZlGYXbTPxYcEHEc6QQW9is77QIiBHbTgJLbSUb6lLxjvk5ygMk_67qqE4NDYaeuedwlD8BztaxH_LvLjREKiZOaXeLYupSNSMxnKHDFksqlrdAjV9Rqgf3KQwe05rmiO7oh3LlbMRcgoft9X2WabmhmH3TY6BtFPH4Jdol2tqjoi329pKvPP04DHqUTF09Qi4A12wPtApsbaLMXee6WwPrBjKh6CYwxJbFTo8kdaokTflqJmGG6IM2dios7VGpROiIlvGafef_Hm-PhT1yzRkuW-XqzH7-SuTVcU_GOFSBcRlE33D-Ylz5zocXdqxsySWVphJ74Mplhy18Dky5RXysz5QLuNh99cvtTvTQ2iybaU6m_OwXV3ewxmq73ytQY25SSp1QSq_7uNHVgvvDkeo9wPr9Qa2qj8tqPG7qYG-wtOFln-egvPZKL-xXcskWgwYtTMr3QQ722GL2vlifSkMgn3Z1YyTyIr0U26qu2fsetl3nudupkwYdwIwYFc5u71Yv75wHcnIOxe6Wrug2goNA2_rJt7m00]--></g></svg>